<svg xmlns="http://www.w3.org/2000/svg" viewBox="0 0 24 24" id="Food-Drink-Coffee--Streamline-Pixel" height="24" width="24"><desc>Food Drink Coffee Streamline Icon: https://streamlinehq.com</desc><title>food-drink-coffee</title><g><path d="M22.2825 11.43h1.1475v3.4275h-1.1475Z" fill="#000000" stroke-width="0.75"></path><path d="M21.142500000000002 14.857499999999998h1.1400000000000001v1.1400000000000001h-1.1400000000000001Z" fill="#000000" stroke-width="0.75"></path><path d="M21.142500000000002 10.290000000000001h1.1400000000000001v1.1400000000000001h-1.1400000000000001Z" fill="#000000" stroke-width="0.75"></path><path d="M20.0025 19.4325h1.1400000000000001v1.1400000000000001h-1.1400000000000001Z" fill="#000000" stroke-width="0.75"></path><path d="M20.0025 12.57h1.1400000000000001v1.1475h-1.1400000000000001Z" fill="#000000" stroke-width="0.75"></path><path d="M17.715 9.1425h3.4275v1.1475h-3.4275Z" fill="#000000" stroke-width="0.75"></path><path d="M18.855 20.572499999999998h1.1475v1.1400000000000001h-1.1475Z" fill="#000000" stroke-width="0.75"></path><path d="M18.855 18.285h1.1475v1.1475h-1.1475Z" fill="#000000" stroke-width="0.75"></path><path d="m17.715 15.997499999999999 0 1.1475 -1.1475 0 0 1.1400000000000001 2.2874999999999996 0 0 -1.1400000000000001 2.2874999999999996 0 0 -1.1475 -3.4275 0z" fill="#000000" stroke-width="0.75"></path><path d="m17.715 11.43 0 3.4275 2.2874999999999996 0 0 -1.1400000000000001 -1.1475 0 0 -1.1475 1.1475 0 0 -1.1400000000000001 -2.2874999999999996 0z" fill="#000000" stroke-width="0.75"></path><path d="M16.5675 21.7125h2.2874999999999996v1.1475h-2.2874999999999996Z" fill="#000000" stroke-width="0.75"></path><path d="M16.5675 8.0025h1.1475v1.1400000000000001h-1.1475Z" fill="#000000" stroke-width="0.75"></path><path d="M14.287500000000001 18.285h2.2800000000000002v1.1475h-2.2800000000000002Z" fill="#000000" stroke-width="0.75"></path><path d="M13.14 6.855h3.4275v1.1475h-3.4275Z" fill="#000000" stroke-width="0.75"></path><path d="M5.1450000000000005 22.86h11.4225V24H5.1450000000000005Z" fill="#000000" stroke-width="0.75"></path><path d="m6.285 9.1425 0 1.1475 -1.1400000000000001 0 0 1.1400000000000001 1.1400000000000001 0 0 1.1400000000000001 9.1425 0 0 -1.1400000000000001 1.1400000000000001 0 0 -1.1400000000000001 -1.1400000000000001 0 0 -1.1475 -9.1425 0z" fill="#000000" stroke-width="0.75"></path><path d="M14.287500000000001 1.1400000000000001h1.1400000000000001v2.2874999999999996h-1.1400000000000001Z" fill="#000000" stroke-width="0.75"></path><path d="M12 0h2.2874999999999996v1.1400000000000001H12Z" fill="#000000" stroke-width="0.75"></path><path d="M13.14 3.4275h1.1475V4.574999999999999h-1.1475Z" fill="#000000" stroke-width="0.75"></path><path d="M10.852500000000001 1.1400000000000001H12v1.1475h-1.1475Z" fill="#000000" stroke-width="0.75"></path><path d="M10.852500000000001 5.715H12v2.2874999999999996h-1.1475Z" fill="#000000" stroke-width="0.75"></path><path d="M8.5725 0h2.2800000000000002v1.1400000000000001h-2.2800000000000002Z" fill="#000000" stroke-width="0.75"></path><path d="M9.712499999999999 4.574999999999999h1.1400000000000001v1.1400000000000001h-1.1400000000000001Z" fill="#000000" stroke-width="0.75"></path><path d="M8.5725 3.4275h1.1400000000000001V4.574999999999999h-1.1400000000000001Z" fill="#000000" stroke-width="0.75"></path><path d="M7.425000000000001 19.4325h6.862500000000001v1.1400000000000001H7.425000000000001Z" fill="#000000" stroke-width="0.75"></path><path d="M7.425000000000001 1.1400000000000001h1.1475v2.2874999999999996H7.425000000000001Z" fill="#000000" stroke-width="0.75"></path><path d="M5.1450000000000005 6.855h4.5675v1.1475H5.1450000000000005Z" fill="#000000" stroke-width="0.75"></path><path d="M5.1450000000000005 18.285H7.425000000000001v1.1475H5.1450000000000005Z" fill="#000000" stroke-width="0.75"></path><path d="M2.8575 21.7125h2.2874999999999996v1.1475H2.8575Z" fill="#000000" stroke-width="0.75"></path><path d="m5.1450000000000005 15.997499999999999 -1.1475 0 0 1.1475 -1.1400000000000001 0 0 1.1400000000000001 2.2874999999999996 0 0 -2.2874999999999996z" fill="#000000" stroke-width="0.75"></path><path d="M3.9975 8.0025h1.1475v1.1400000000000001H3.9975Z" fill="#000000" stroke-width="0.75"></path><path d="M2.8575 9.1425h1.1400000000000001v6.855H2.8575Z" fill="#000000" stroke-width="0.75"></path><path d="M1.71 20.572499999999998h1.1475v1.1400000000000001H1.71Z" fill="#000000" stroke-width="0.75"></path><path d="M1.71 18.285h1.1475v1.1475H1.71Z" fill="#000000" stroke-width="0.75"></path><path d="M0.5700000000000001 19.4325h1.1400000000000001v1.1400000000000001H0.5700000000000001Z" fill="#000000" stroke-width="0.75"></path></g></svg>