<svg xmlns="http://www.w3.org/2000/svg" viewBox="0 0 24 24" id="Interface-Essential-Shrink-1--Streamline-Pixel" height="24" width="24"><desc>Interface Essential Shrink 1 Streamline Icon: https://streamlinehq.com</desc><title>interface-essential-shrink-1</title><g><path d="M22.8525 0H24v1.1400000000000001h-1.1475Z" fill="#000000" stroke-width="0.75"></path><path d="M21.7125 1.1400000000000001h1.1400000000000001v1.1475h-1.1400000000000001Z" fill="#000000" stroke-width="0.75"></path><path d="M20.565 2.2874999999999996h1.1475v1.1400000000000001h-1.1475Z" fill="#000000" stroke-width="0.75"></path><path d="M19.424999999999997 3.4275h1.1400000000000001v1.1400000000000001H19.424999999999997Z" fill="#000000" stroke-width="0.75"></path><path d="M18.285 4.5675h1.1400000000000001v1.1475h-1.1400000000000001Z" fill="#000000" stroke-width="0.75"></path><path d="M17.137500000000003 5.715h1.1475v1.1400000000000001h-1.1475Z" fill="#000000" stroke-width="0.75"></path><path d="M15.997499999999999 6.855h1.1400000000000001v1.1475h-1.1400000000000001Z" fill="#000000" stroke-width="0.75"></path><path d="M14.850000000000001 8.0025h1.1475v1.1400000000000001H14.850000000000001Z" fill="#000000" stroke-width="0.75"></path><path d="m13.71 4.5675 -1.1400000000000001 0 0 6.862500000000001 6.855 0 0 -1.1475 -4.574999999999999 0 0 -1.1400000000000001 -1.1400000000000001 0 0 -4.574999999999999z" fill="#000000" stroke-width="0.75"></path><path d="m10.2825 19.424999999999997 1.1400000000000001 0 0 -6.855 -6.855 0 0 1.1475 4.574999999999999 0 0 1.1400000000000001 1.1400000000000001 0 0 4.5675z" fill="#000000" stroke-width="0.75"></path><path d="M7.995 14.857499999999998h1.1475v1.1400000000000001h-1.1475Z" fill="#000000" stroke-width="0.75"></path><path d="M6.855 15.997499999999999h1.1400000000000001v1.1475H6.855Z" fill="#000000" stroke-width="0.75"></path><path d="M5.7075000000000005 17.145h1.1475v1.1400000000000001H5.7075000000000005Z" fill="#000000" stroke-width="0.75"></path><path d="M4.5675 18.285h1.1400000000000001v1.1400000000000001H4.5675Z" fill="#000000" stroke-width="0.75"></path><path d="M3.4275 19.424999999999997h1.1400000000000001v1.1475H3.4275Z" fill="#000000" stroke-width="0.75"></path><path d="M2.2800000000000002 20.572499999999998h1.1475v1.1400000000000001H2.2800000000000002Z" fill="#000000" stroke-width="0.75"></path><path d="M1.1400000000000001 21.7125h1.1400000000000001v1.1475H1.1400000000000001Z" fill="#000000" stroke-width="0.75"></path><path d="M0 22.86h1.1400000000000001V24H0Z" fill="#000000" stroke-width="0.75"></path></g></svg>