<svg xmlns="http://www.w3.org/2000/svg" viewBox="0 0 24 24" id="Pet-Animals-Dog--Streamline-Pixel" height="24" width="24"><desc>Pet Animals Dog Streamline Icon: https://streamlinehq.com</desc><title>pet-animals-dog</title><g><path d="m22.8525 14.857499999999998 -1.1400000000000001 0 0 1.1475 1.1400000000000001 0 0 1.1400000000000001 1.1475 0 0 -4.5675 -1.1475 0 0 2.2800000000000002z" fill="#000000" stroke-width="0.75"></path><path d="M21.7125 17.145h1.1400000000000001v2.2874999999999996h-1.1400000000000001Z" fill="#000000" stroke-width="0.75"></path><path d="M21.7125 10.290000000000001h1.1400000000000001v2.2874999999999996h-1.1400000000000001Z" fill="#000000" stroke-width="0.75"></path><path d="M20.572499999999998 19.4325h1.1400000000000001v1.1400000000000001h-1.1400000000000001Z" fill="#000000" stroke-width="0.75"></path><path d="M19.424999999999997 13.7175h2.2874999999999996v1.1400000000000001H19.424999999999997Z" fill="#000000" stroke-width="0.75"></path><path d="M20.572499999999998 2.2874999999999996h1.1400000000000001v8.0025h-1.1400000000000001Z" fill="#000000" stroke-width="0.75"></path><path d="M19.424999999999997 20.572499999999998h1.1475v1.1475H19.424999999999997Z" fill="#000000" stroke-width="0.75"></path><path d="m19.424999999999997 2.2874999999999996 1.1475 0 0 -2.2874999999999996 -2.2874999999999996 0 0 1.1475 1.1400000000000001 0 0 1.1400000000000001z" fill="#000000" stroke-width="0.75"></path><path d="M14.857499999999998 12.5775h4.5675v1.1400000000000001h-4.5675Z" fill="#000000" stroke-width="0.75"></path><path d="M15.997499999999999 21.72h3.4275v1.1400000000000001h-3.4275Z" fill="#000000" stroke-width="0.75"></path><path d="m19.424999999999997 6.862500000000001 0 -3.4275 -1.1400000000000001 0 0 1.1400000000000001 -1.1400000000000001 0 0 1.1400000000000001 -1.1475 0 0 1.1475 3.4275 0z" fill="#000000" stroke-width="0.75"></path><path d="M17.145 1.1475h1.1400000000000001v1.1400000000000001h-1.1400000000000001Z" fill="#000000" stroke-width="0.75"></path><path d="M15.997499999999999 10.290000000000001h1.1475v1.1400000000000001h-1.1475Z" fill="#000000" stroke-width="0.75"></path><path d="M15.997499999999999 2.2874999999999996h1.1475v1.1475h-1.1475Z" fill="#000000" stroke-width="0.75"></path><path d="M14.857499999999998 3.435h1.1400000000000001V4.574999999999999h-1.1400000000000001Z" fill="#000000" stroke-width="0.75"></path><path d="M7.995 22.86h8.0025V24H7.995Z" fill="#000000" stroke-width="0.75"></path><path d="M13.71 16.005h1.1475v1.1400000000000001h-1.1475Z" fill="#000000" stroke-width="0.75"></path><path d="m9.1425 11.43 0 1.1475 1.1400000000000001 0 0 1.1400000000000001 1.1475 0 0 1.1400000000000001 1.1400000000000001 0 0 -1.1400000000000001 1.1400000000000001 0 0 -1.1400000000000001 1.1475 0 0 -1.1475 -5.715 0z" fill="#000000" stroke-width="0.75"></path><path d="M11.43 17.145h2.2800000000000002v1.1400000000000001h-2.2800000000000002Z" fill="#000000" stroke-width="0.75"></path><path d="M9.1425 4.574999999999999h5.715v1.1400000000000001h-5.715Z" fill="#000000" stroke-width="0.75"></path><path d="M7.995 3.435h1.1475V4.574999999999999h-1.1475Z" fill="#000000" stroke-width="0.75"></path><path d="M4.5675 21.72h3.4275v1.1400000000000001H4.5675Z" fill="#000000" stroke-width="0.75"></path><path d="M4.5675 12.5775h4.574999999999999v1.1400000000000001h-4.574999999999999Z" fill="#000000" stroke-width="0.75"></path><path d="M6.855 10.290000000000001h1.1400000000000001v1.1400000000000001H6.855Z" fill="#000000" stroke-width="0.75"></path><path d="M6.855 2.2874999999999996h1.1400000000000001v1.1475H6.855Z" fill="#000000" stroke-width="0.75"></path><path d="m7.995 6.862500000000001 0 -1.1475 -1.1400000000000001 0 0 -1.1400000000000001 -1.1400000000000001 0 0 -1.1400000000000001 -1.1475 0 0 3.4275 3.4275 0z" fill="#000000" stroke-width="0.75"></path><path d="M5.715 1.1475h1.1400000000000001v1.1400000000000001H5.715Z" fill="#000000" stroke-width="0.75"></path><path d="M3.4275 20.572499999999998h1.1400000000000001v1.1475H3.4275Z" fill="#000000" stroke-width="0.75"></path><path d="m4.5675 1.1475 1.1475 0 0 -1.1475 -2.2874999999999996 0 0 2.2874999999999996 1.1400000000000001 0 0 -1.1400000000000001z" fill="#000000" stroke-width="0.75"></path><path d="M2.2874999999999996 19.4325h1.1400000000000001v1.1400000000000001H2.2874999999999996Z" fill="#000000" stroke-width="0.75"></path><path d="M2.2874999999999996 13.7175h2.2800000000000002v1.1400000000000001H2.2874999999999996Z" fill="#000000" stroke-width="0.75"></path><path d="M2.2874999999999996 2.2874999999999996h1.1400000000000001v8.0025H2.2874999999999996Z" fill="#000000" stroke-width="0.75"></path><path d="M1.1400000000000001 17.145h1.1475v2.2874999999999996H1.1400000000000001Z" fill="#000000" stroke-width="0.75"></path><path d="m2.2874999999999996 16.005 0 -1.1475 -1.1475 0 0 -2.2800000000000002 -1.1400000000000001 0 0 4.5675 1.1400000000000001 0 0 -1.1400000000000001 1.1475 0z" fill="#000000" stroke-width="0.75"></path><path d="M1.1400000000000001 10.290000000000001h1.1475v2.2874999999999996H1.1400000000000001Z" fill="#000000" stroke-width="0.75"></path></g></svg>