<svg xmlns="http://www.w3.org/2000/svg" viewBox="0 0 24 24" id="Interface-Essential-Signin-Expand--Streamline-Pixel" height="24" width="24"><desc>Interface Essential Signin Expand Streamline Icon: https://streamlinehq.com</desc><title>interface-essential-signin-login copy 101</title><g><path d="m22.8525 6.855 1.1475 0L24 0l-6.862500000000001 0 0 1.1400000000000001 4.574999999999999 0 0 1.1475 1.1400000000000001 0 0 4.5675z" fill="#000000" stroke-width="0.75"></path><path d="m17.137500000000003 22.86 0 1.1400000000000001L24 24l0 -6.855 -1.1475 0 0 4.5675 -1.1400000000000001 0 0 1.1475 -4.574999999999999 0z" fill="#000000" stroke-width="0.75"></path><path d="M20.565 20.572499999999998h1.1475v1.1400000000000001h-1.1475Z" fill="#000000" stroke-width="0.75"></path><path d="M20.565 2.2874999999999996h1.1475v1.1400000000000001h-1.1475Z" fill="#000000" stroke-width="0.75"></path><path d="M19.424999999999997 19.424999999999997h1.1400000000000001v1.1475H19.424999999999997Z" fill="#000000" stroke-width="0.75"></path><path d="M19.424999999999997 3.4275h1.1400000000000001v1.1400000000000001H19.424999999999997Z" fill="#000000" stroke-width="0.75"></path><path d="M18.285 18.285h1.1400000000000001v1.1400000000000001h-1.1400000000000001Z" fill="#000000" stroke-width="0.75"></path><path d="M18.285 4.5675h1.1400000000000001v1.1475h-1.1400000000000001Z" fill="#000000" stroke-width="0.75"></path><path d="M17.137500000000003 17.145h1.1475v1.1400000000000001h-1.1475Z" fill="#000000" stroke-width="0.75"></path><path d="M17.137500000000003 5.715h1.1475v1.1400000000000001h-1.1475Z" fill="#000000" stroke-width="0.75"></path><path d="M15.997499999999999 15.997499999999999h1.1400000000000001v1.1475h-1.1400000000000001Z" fill="#000000" stroke-width="0.75"></path><path d="M15.997499999999999 6.855h1.1400000000000001v1.1475h-1.1400000000000001Z" fill="#000000" stroke-width="0.75"></path><path d="M14.850000000000001 14.857499999999998h1.1475v1.1400000000000001H14.850000000000001Z" fill="#000000" stroke-width="0.75"></path><path d="M14.850000000000001 8.0025h1.1475v1.1400000000000001H14.850000000000001Z" fill="#000000" stroke-width="0.75"></path><path d="M13.71 13.7175h1.1400000000000001v1.1400000000000001h-1.1400000000000001Z" fill="#000000" stroke-width="0.75"></path><path d="M13.71 9.1425h1.1400000000000001v1.1400000000000001h-1.1400000000000001Z" fill="#000000" stroke-width="0.75"></path><path d="M12.57 12.57h1.1400000000000001v1.1475h-1.1400000000000001Z" fill="#000000" stroke-width="0.75"></path><path d="M12.57 10.2825h1.1400000000000001v1.1475h-1.1400000000000001Z" fill="#000000" stroke-width="0.75"></path><path d="M11.4225 11.43h1.1475v1.1400000000000001h-1.1475Z" fill="#000000" stroke-width="0.75"></path><path d="M10.2825 12.57h1.1400000000000001v1.1475h-1.1400000000000001Z" fill="#000000" stroke-width="0.75"></path><path d="M10.2825 10.2825h1.1400000000000001v1.1475h-1.1400000000000001Z" fill="#000000" stroke-width="0.75"></path><path d="M9.1425 13.7175h1.1400000000000001v1.1400000000000001h-1.1400000000000001Z" fill="#000000" stroke-width="0.75"></path><path d="M9.1425 9.1425h1.1400000000000001v1.1400000000000001h-1.1400000000000001Z" fill="#000000" stroke-width="0.75"></path><path d="M7.995 14.857499999999998h1.1475v1.1400000000000001h-1.1475Z" fill="#000000" stroke-width="0.75"></path><path d="M7.995 8.0025h1.1475v1.1400000000000001h-1.1475Z" fill="#000000" stroke-width="0.75"></path><path d="M6.855 15.997499999999999h1.1400000000000001v1.1475H6.855Z" fill="#000000" stroke-width="0.75"></path><path d="M6.855 6.855h1.1400000000000001v1.1475H6.855Z" fill="#000000" stroke-width="0.75"></path><path d="M5.7075000000000005 17.145h1.1475v1.1400000000000001H5.7075000000000005Z" fill="#000000" stroke-width="0.75"></path><path d="M5.7075000000000005 5.715h1.1475v1.1400000000000001H5.7075000000000005Z" fill="#000000" stroke-width="0.75"></path><path d="M4.5675 18.285h1.1400000000000001v1.1400000000000001H4.5675Z" fill="#000000" stroke-width="0.75"></path><path d="M4.5675 4.5675h1.1400000000000001v1.1475H4.5675Z" fill="#000000" stroke-width="0.75"></path><path d="M3.4275 19.424999999999997h1.1400000000000001v1.1475H3.4275Z" fill="#000000" stroke-width="0.75"></path><path d="M3.4275 3.4275h1.1400000000000001v1.1400000000000001H3.4275Z" fill="#000000" stroke-width="0.75"></path><path d="M2.2800000000000002 20.572499999999998h1.1475v1.1400000000000001H2.2800000000000002Z" fill="#000000" stroke-width="0.75"></path><path d="M2.2800000000000002 2.2874999999999996h1.1475v1.1400000000000001H2.2800000000000002Z" fill="#000000" stroke-width="0.75"></path><path d="m6.855 1.1400000000000001 0 -1.1400000000000001L0 0l0 6.855 1.1400000000000001 0 0 -4.5675 1.1400000000000001 0 0 -1.1475 4.574999999999999 0z" fill="#000000" stroke-width="0.75"></path><path d="m6.855 22.86 -4.574999999999999 0 0 -1.1475 -1.1400000000000001 0 0 -4.5675 -1.1400000000000001 0L0 24l6.855 0 0 -1.1400000000000001z" fill="#000000" stroke-width="0.75"></path></g></svg>