<svg xmlns="http://www.w3.org/2000/svg" viewBox="0 0 24 24" id="Pet-Animals-Rabbit-2--Streamline-Pixel" height="24" width="24"><desc>Pet Animals Rabbit 2 Streamline Icon: https://streamlinehq.com</desc><title>pet-animals-rabbit-2</title><g><path d="M20.572499999999998 14.857499999999998h1.1400000000000001v5.715h-1.1400000000000001Z" fill="#000000" stroke-width="0.75"></path><path d="M19.4325 20.572499999999998h1.1400000000000001v1.1475h-1.1400000000000001Z" fill="#000000" stroke-width="0.75"></path><path d="M19.4325 12.57h1.1400000000000001v2.2874999999999996h-1.1400000000000001Z" fill="#000000" stroke-width="0.75"></path><path d="M18.285 2.2874999999999996h1.1475v10.2825h-1.1475Z" fill="#000000" stroke-width="0.75"></path><path d="M17.145 21.72h2.2874999999999996v1.1400000000000001h-2.2874999999999996Z" fill="#000000" stroke-width="0.75"></path><path d="M17.145 1.1475h1.1400000000000001v1.1400000000000001h-1.1400000000000001Z" fill="#000000" stroke-width="0.75"></path><path d="M14.857499999999998 0h2.2874999999999996v1.1475h-2.2874999999999996Z" fill="#000000" stroke-width="0.75"></path><path d="M6.862500000000001 22.86h10.2825V24H6.862500000000001Z" fill="#000000" stroke-width="0.75"></path><path d="M14.857499999999998 13.7175h1.1475v1.1400000000000001h-1.1475Z" fill="#000000" stroke-width="0.75"></path><path d="M14.857499999999998 3.4275h2.2874999999999996v6.862500000000001h-2.2874999999999996Z" fill="#000000" stroke-width="0.75"></path><path d="M13.7175 17.145h1.1400000000000001v1.1400000000000001h-1.1400000000000001Z" fill="#000000" stroke-width="0.75"></path><path d="M13.7175 1.1475h1.1400000000000001v1.1400000000000001h-1.1400000000000001Z" fill="#000000" stroke-width="0.75"></path><path d="M12.57 2.2874999999999996h1.1475v9.1425h-1.1475Z" fill="#000000" stroke-width="0.75"></path><path d="M11.43 18.285h2.2874999999999996v1.1475h-2.2874999999999996Z" fill="#000000" stroke-width="0.75"></path><path d="m11.43 17.145 1.1400000000000001 0 0 -1.1400000000000001 1.1475 0 0 -1.1475 -3.4275 0 0 1.1475 1.1400000000000001 0 0 1.1400000000000001z" fill="#000000" stroke-width="0.75"></path><path d="M11.43 11.43h1.1400000000000001v1.1400000000000001h-1.1400000000000001Z" fill="#000000" stroke-width="0.75"></path><path d="M10.290000000000001 2.2874999999999996h1.1400000000000001v9.1425h-1.1400000000000001Z" fill="#000000" stroke-width="0.75"></path><path d="M9.1425 1.1475h1.1475v1.1400000000000001h-1.1475Z" fill="#000000" stroke-width="0.75"></path><path d="M8.0025 13.7175h1.1400000000000001v1.1400000000000001h-1.1400000000000001Z" fill="#000000" stroke-width="0.75"></path><path d="M6.862500000000001 0h2.2800000000000002v1.1475H6.862500000000001Z" fill="#000000" stroke-width="0.75"></path><path d="M6.862500000000001 3.4275h2.2800000000000002v6.862500000000001H6.862500000000001Z" fill="#000000" stroke-width="0.75"></path><path d="M4.574999999999999 21.72h2.2874999999999996v1.1400000000000001H4.574999999999999Z" fill="#000000" stroke-width="0.75"></path><path d="M5.715 1.1475h1.1475v1.1400000000000001H5.715Z" fill="#000000" stroke-width="0.75"></path><path d="M4.574999999999999 2.2874999999999996h1.1400000000000001v10.2825H4.574999999999999Z" fill="#000000" stroke-width="0.75"></path><path d="M3.4275 20.572499999999998H4.574999999999999v1.1475H3.4275Z" fill="#000000" stroke-width="0.75"></path><path d="M3.4275 12.57H4.574999999999999v2.2874999999999996H3.4275Z" fill="#000000" stroke-width="0.75"></path><path d="M2.2874999999999996 14.857499999999998h1.1400000000000001v5.715H2.2874999999999996Z" fill="#000000" stroke-width="0.75"></path></g></svg>