<svg xmlns="http://www.w3.org/2000/svg" viewBox="0 0 24 24" id="Interface-Essential-Share-3--Streamline-Pixel" height="24" width="24"><desc>Interface Essential Share 3 Streamline Icon: https://streamlinehq.com</desc><title>interface-essential-share-3</title><g><path d="M19.4325 10.2825h1.1400000000000001v11.43h-1.1400000000000001Z" fill="#000000" stroke-width="0.75"></path><path d="M18.285 21.7125h1.1475v1.1475h-1.1475Z" fill="#000000" stroke-width="0.75"></path><path d="M18.285 9.1425h1.1475v1.1400000000000001h-1.1475Z" fill="#000000" stroke-width="0.75"></path><path d="M16.005 8.0025h2.2800000000000002v1.1400000000000001h-2.2800000000000002Z" fill="#000000" stroke-width="0.75"></path><path d="M5.715 22.86h12.57V24H5.715Z" fill="#000000" stroke-width="0.75"></path><path d="m11.43 0 0 1.1400000000000001 -1.1400000000000001 0 0 1.1475 -1.1475 0 0 1.1400000000000001 -1.1400000000000001 0 0 1.1400000000000001 -1.1400000000000001 0 0 1.1475 3.4275 0 0 6.855 3.4275 0 0 -6.855 3.4275 0 0 -1.1475 -1.1400000000000001 0 0 -1.1400000000000001 -1.1475 0 0 -1.1400000000000001 -1.1400000000000001 0 0 -1.1475 -1.1475 0 0 -1.1400000000000001 -1.1400000000000001 0z" fill="#000000" stroke-width="0.75"></path><path d="M5.715 8.0025h2.2874999999999996v1.1400000000000001H5.715Z" fill="#000000" stroke-width="0.75"></path><path d="M4.574999999999999 21.7125h1.1400000000000001v1.1475H4.574999999999999Z" fill="#000000" stroke-width="0.75"></path><path d="M4.574999999999999 9.1425h1.1400000000000001v1.1400000000000001H4.574999999999999Z" fill="#000000" stroke-width="0.75"></path><path d="M3.4275 10.2825H4.574999999999999v11.43H3.4275Z" fill="#000000" stroke-width="0.75"></path></g></svg>